<?xml version="1.0" standalone="no"?>
<!DOCTYPE svg PUBLIC "-//W3C//DTD SVG 20010904//EN"
 "http://www.w3.org/TR/2001/REC-SVG-20010904/DTD/svg10.dtd">
<svg version="1.0" xmlns="http://www.w3.org/2000/svg"
 width="355.000000pt" height="355.000000pt" viewBox="0 0 355.000000 355.000000"
 preserveAspectRatio="xMidYMid meet">
<metadata>
Created by potrace 1.14, written by Peter Selinger 2001-2017
</metadata>
<g transform="translate(0.000000,355.000000) scale(0.100000,-0.100000)"
fill="#000000" stroke="none">
<path d="M217 3524 c-21 -14 -47 -39 -57 -57 -19 -31 -20 -55 -20 -800 0 -840
-3 -792 60 -852 l31 -30 317 -5 c174 -3 310 -7 301 -8 -18 -2 -71 -57 -88 -90
-18 -34 -27 -259 -16 -412 2 -41 4 -120 4 -175 -3 -356 3 -871 11 -886 7 -12
6 -19 -3 -22 -6 -3 -7 -6 -2 -6 6 -1 9 -20 9 -44 -2 -48 6 -62 56 -97 l35 -25
1214 -3 c1149 -3 1215 -2 1241 15 15 10 39 32 54 50 23 27 27 43 31 113 3 45
7 85 10 90 3 5 1 12 -5 15 -6 4 -7 12 -3 18 5 7 7 26 6 42 -2 17 -3 62 -3 100
0 117 -1 138 -6 147 -3 4 0 8 6 8 6 0 8 5 4 12 -9 14 -13 98 -5 98 3 0 4 219
1 486 l-5 485 -25 19 c-14 11 -29 20 -33 20 -5 0 -6 4 -3 8 16 27 -135 57
-160 32 -7 -7 -28 -7 -63 0 -30 5 -138 10 -242 10 l-188 0 49 46 50 47 0 782
0 782 -23 34 c-12 18 -40 44 -62 56 l-40 23 -1200 -1 -1200 0 -38 -25z"/>
</g>
</svg>
